<svg xmlns="http://www.w3.org/2000/svg" width="256" height="256" viewBox="0 0 256 256">
  <defs>
    <filter id="shadow" x="-20%" y="-20%" width="140%" height="140%">
      <feDropShadow dx="0" dy="2" stdDeviation="4" flood-color="#000" flood-opacity="0.25"/>
    </filter>
  </defs>
  <rect x="72" y="28" width="160" height="200" rx="14" fill="#107C41" filter="url(#shadow)"/>
  <rect x="84" y="40" width="136" height="176" rx="8" fill="#138A4C"/>
  <g stroke="#E6F4EA" stroke-width="2" opacity="0.9">
    <line x1="84" y1="76" x2="220" y2="76"/>
    <line x1="84" y1="112" x2="220" y2="112"/>
    <line x1="84" y1="148" x2="220" y2="148"/>
    <line x1="84" y1="184" x2="220" y2="184"/>
    <line x1="118" y1="40" x2="118" y2="216"/>
    <line x1="152" y1="40" x2="152" y2="216"/>
    <line x1="186" y1="40" x2="186" y2="216"/>
  </g>
  <rect x="16" y="36" width="56" height="56" rx="8" fill="#E8F5E9" stroke="#107C41" stroke-width="3"/>
  <rect x="16" y="100" width="56" height="56" rx="8" fill="#E8F5E9" stroke="#107C41" stroke-width="3"/>
  <rect x="16" y="164" width="56" height="56" rx="8" fill="#E8F5E9" stroke="#107C41" stroke-width="3"/>
  <g fill="#107C41">
    <polygon points="80,64 108,64 108,52 132,80 108,108 108,96 80,96"/>
    <polygon points="80,128 108,128 108,116 132,144 108,172 108,160 80,160"/>
    <polygon points="80,192 108,192 108,180 132,208 108,236 108,224 80,224"/>
  </g>
</svg>
